<?xml version="1.0" encoding="iso-8859-1"?>
<!-- Generator: Adobe Illustrator 19.0.0, SVG Export Plug-In . SVG Version: 6.00 Build 0)  -->
<svg version="1.1" id="Capa_1" xmlns="http://www.w3.org/2000/svg" xmlns:xlink="http://www.w3.org/1999/xlink" x="0px" y="0px"
	 viewBox="0 0 512 512" style="enable-background:new 0 0 512 512;" xml:space="preserve">
<g>
	<path style="fill:#303C42;" d="M373.334,170.667h-53.333c0-23.531-19.135-42.667-42.667-42.667h-22.257l-8.154-89.686
		c5.355-3.88,9.077-9.878,9.077-16.98C256.001,9.573,246.428,0,234.667,0c-7.9,0-14.533,4.514-18.22,10.915
		c-44.374,1.569-109.78,13.622-109.78,106.418c0,67.885-11.354,202.073-41.802,273.135c-2.323,5.406,0.188,11.677,5.604,14
		c1.365,0.594,2.792,0.865,4.198,0.865c4.135,0,8.073-2.417,9.802-6.469c28.242-65.882,40.676-182.358,43.068-256.245l43.13,43.13
		V288c0,5.896,4.771,10.667,10.667,10.667h10.667V448c-23.531,0-42.667,19.135-42.667,42.667v10.667
		c0,5.896,4.771,10.667,10.667,10.667h170.667c5.896,0,10.667-4.771,10.667-10.667v-10.667c0-23.531-19.135-42.667-42.667-42.667
		V298.667h10.667c5.896,0,10.667-4.771,10.667-10.667v-53.333h53.333c5.885,0,10.667,4.781,10.667,10.667v21.333
		c0,5.896,4.771,10.667,10.667,10.667h42.667c5.896,0,10.667-4.771,10.667-10.667v-21.333
		C448.001,204.167,414.501,170.667,373.334,170.667z M213.334,128c-19.013,0-34.965,12.577-40.464,29.786l-44.68-44.68
		c1.887-69.961,48.863-79.613,88.56-80.905c2.177,3.565,5.147,6.543,8.951,8.331L233.652,128H213.334z"/>
	<path style="fill:#303C42;" d="M407.22,303.271c-6.979,10.115-23.219,35.094-23.219,48.729c0,17.646,14.354,32,32,32
		c17.646,0,32-14.354,32-32c0-13.635-16.24-38.615-23.219-48.729C420.782,297.5,411.22,297.5,407.22,303.271z"/>
</g>
<g>
	<path style="fill:#546E7A;" d="M320.001,490.667H170.667c0-11.76,9.573-21.333,21.333-21.333h106.667
		C310.428,469.333,320.001,478.906,320.001,490.667z"/>
	<rect x="213.333" y="298.667" style="fill:#546E7A;" width="64" height="149.333"/>
	<path style="fill:#546E7A;" d="M298.667,277.333H192.001V170.667c0-11.76,9.573-21.333,21.333-21.333h64
		c11.76,0,21.333,9.573,21.333,21.333V277.333z"/>
</g>
<path style="opacity:0.1;enable-background:new    ;" d="M298.667,469.333h-21.333c11.76,0,21.333,9.573,21.333,21.333h21.333
	C320.001,478.906,310.428,469.333,298.667,469.333z"/>
<rect x="256" y="298.667" style="opacity:0.1;enable-background:new    ;" width="21.333" height="149.333"/>
<path style="opacity:0.1;enable-background:new    ;" d="M277.334,149.333h-21.333c11.76,0,21.333,9.573,21.333,21.333v106.667
	h21.333V170.667C298.667,158.906,289.095,149.333,277.334,149.333z"/>
<g>
	<path style="opacity:0.2;fill:#FFFFFF;enable-background:new    ;" d="M192.001,469.333h21.333
		c-11.76,0-21.333,9.573-21.333,21.333h-21.333C170.667,478.906,180.24,469.333,192.001,469.333z"/>
	<rect x="213.333" y="298.667" style="opacity:0.2;fill:#FFFFFF;enable-background:new    ;" width="21.333" height="149.333"/>
	<path style="opacity:0.2;fill:#FFFFFF;enable-background:new    ;" d="M213.334,149.333h21.333
		c-11.76,0-21.333,9.573-21.333,21.333v106.667h-21.333V170.667C192.001,158.906,201.574,149.333,213.334,149.333z"/>
</g>
<path style="fill:#546E7A;" d="M426.667,256h-21.333v-10.667c0-17.646-14.354-32-32-32h-53.333V192h53.333
	c29.406,0,53.333,23.927,53.333,53.333V256z"/>
<path style="fill:#0288D1;" d="M416.001,362.667c-5.885,0-10.667-4.781-10.667-10.656c0.083-3.26,4.521-12.552,10.667-22.906
	c6.135,10.333,10.573,19.625,10.667,22.896C426.667,357.885,421.876,362.667,416.001,362.667z"/>
<path style="opacity:0.2;fill:#FFFFFF;enable-background:new    ;" d="M419.347,335.001c1.339,3.063,2.262,5.621,2.301,6.974
	c0,5.885-4.792,10.667-10.667,10.667c-2.012,0-3.789-0.708-5.396-1.68c-0.053,0.31-0.245,0.805-0.251,1.048
	c0,5.875,4.781,10.656,10.667,10.656c5.875,0,10.667-4.781,10.667-10.667C426.592,349.374,423.652,342.811,419.347,335.001z"/>
<linearGradient id="SVGID_1_" gradientUnits="userSpaceOnUse" x1="-35.9531" y1="633.2344" x2="-32.9531" y2="630.2344" gradientTransform="matrix(21.3333 0 0 -21.3333 996.3336 13791.667)">
	<stop  offset="0" style="stop-color:#000000;stop-opacity:0.1"/>
	<stop  offset="1" style="stop-color:#000000;stop-opacity:0"/>
</linearGradient>
<polygon style="fill:url(#SVGID_1_);" points="277.334,298.667 213.334,298.667 277.334,362.667 "/>
<linearGradient id="SVGID_2_" gradientUnits="userSpaceOnUse" x1="-31.9531" y1="637.2344" x2="-30.9531" y2="636.2344" gradientTransform="matrix(21.3333 0 0 -21.3333 996.3336 13791.667)">
	<stop  offset="0" style="stop-color:#000000;stop-opacity:0.1"/>
	<stop  offset="1" style="stop-color:#000000;stop-opacity:0"/>
</linearGradient>
<polygon style="fill:url(#SVGID_2_);" points="341.334,213.333 320.001,192 320.001,213.333 "/>
<linearGradient id="SVGID_3_" gradientUnits="userSpaceOnUse" x1="-44.0014" y1="637.5638" x2="-25.9411" y2="629.1416" gradientTransform="matrix(21.3333 0 0 -21.3333 996.3336 13791.667)">
	<stop  offset="0" style="stop-color:#FFFFFF;stop-opacity:0.2"/>
	<stop  offset="1" style="stop-color:#FFFFFF;stop-opacity:0"/>
</linearGradient>
<path style="fill:url(#SVGID_3_);" d="M373.334,170.667h-53.333c0-23.531-19.135-42.667-42.667-42.667h-22.257l-8.154-89.686
	c5.355-3.88,9.077-9.878,9.077-16.98C256.001,9.573,246.428,0,234.667,0c-7.9,0-14.533,4.514-18.22,10.915
	c-44.374,1.569-109.78,13.622-109.78,106.418c0,67.885-11.354,202.073-41.802,273.135c-2.323,5.406,0.188,11.677,5.604,14
	c1.365,0.594,2.792,0.865,4.198,0.865c4.135,0,8.073-2.417,9.802-6.469c28.242-65.882,40.676-182.358,43.068-256.245l43.13,43.13
	V288c0,5.896,4.771,10.667,10.667,10.667h10.667V448c-23.531,0-42.667,19.135-42.667,42.667v10.667
	c0,5.896,4.771,10.667,10.667,10.667h170.667c5.896,0,10.667-4.771,10.667-10.667v-10.667c0-23.531-19.135-42.667-42.667-42.667
	V298.667h10.667c5.896,0,10.667-4.771,10.667-10.667v-53.333h53.333c5.885,0,10.667,4.781,10.667,10.667v21.333
	c0,5.896,4.771,10.667,10.667,10.667h42.667c5.896,0,10.667-4.771,10.667-10.667v-21.333
	C448.001,204.167,414.501,170.667,373.334,170.667z M213.334,128c-19.013,0-34.965,12.577-40.464,29.786l-44.68-44.68
	c1.887-69.961,48.863-79.613,88.56-80.905c2.177,3.565,5.147,6.543,8.951,8.331L233.652,128H213.334z M407.22,303.271
	c-6.979,10.115-23.219,35.094-23.219,48.729c0,17.646,14.354,32,32,32c17.646,0,32-14.354,32-32
	c0-13.635-16.24-38.615-23.219-48.729C420.782,297.5,411.22,297.5,407.22,303.271z"/>
<g>
</g>
<g>
</g>
<g>
</g>
<g>
</g>
<g>
</g>
<g>
</g>
<g>
</g>
<g>
</g>
<g>
</g>
<g>
</g>
<g>
</g>
<g>
</g>
<g>
</g>
<g>
</g>
<g>
</g>
</svg>
